<svg version="1.1" id="Layer_1" xmlns="http://www.w3.org/2000/svg" xmlns:xlink="http://www.w3.org/1999/xlink" x="0px" y="0px"
	 width="100%" viewBox="0 0 500 500" enable-background="new 0 0 500 500" xml:space="preserve">
<path fill="#F2E5DF" opacity="1.000000" stroke="none" 
	d="
M325.000000,501.000000 
	C216.666687,501.000000 108.833382,501.000000 1.000058,501.000000 
	C1.000039,334.333405 1.000039,167.666794 1.000019,1.000147 
	C167.666565,1.000098 334.333130,1.000098 500.999756,1.000049 
	C500.999847,167.666519 500.999847,334.333038 500.999939,500.999786 
	C442.500000,501.000000 384.000000,501.000000 325.000000,501.000000 
M226.597336,371.936584 
	C226.911194,371.611115 227.225052,371.285645 227.538925,370.960205 
	C227.327194,370.783203 227.115448,370.606201 226.903717,370.429199 
	C226.581604,370.936554 226.259491,371.443878 225.698090,372.084106 
	C225.812500,372.073608 225.926895,372.063080 226.597336,371.936584 
M312.418823,376.069763 
	C312.097717,376.387024 311.776611,376.704254 311.455475,377.021484 
	C311.664520,377.198792 311.873566,377.376099 312.082611,377.553436 
	C312.397003,377.042206 312.711395,376.530975 313.262848,375.906952 
	C313.169128,375.930023 313.075409,375.953125 312.418823,376.069763 
M233.728775,377.873047 
	C237.037048,373.866455 236.844360,372.252869 232.962433,370.488159 
	C232.962433,372.948486 232.962433,375.459778 232.724731,378.090271 
	C232.825211,378.071411 232.925690,378.052551 233.728775,377.873047 
M378.187408,377.996368 
	C374.934204,375.164398 375.129700,371.335114 379.094727,369.303619 
	C377.206665,368.982971 375.763367,368.737854 374.036438,368.444580 
	C374.036438,371.254272 373.892883,373.548798 374.069427,375.818420 
	C374.347809,379.397095 376.146667,379.991425 378.957520,377.887878 
	C378.957520,377.887878 379.000336,378.002502 378.187408,377.996368 
M306.862335,370.951752 
	C307.158020,370.651581 307.453705,370.351379 307.749390,370.051208 
	C307.264465,370.001801 306.779572,369.952423 306.094177,369.051300 
	C306.094177,366.481110 306.094177,363.910950 306.094177,361.340759 
	C305.400421,361.355133 304.706665,361.369507 304.012909,361.383881 
	C304.012909,366.462708 303.864990,371.549866 304.149597,376.612701 
	C304.200714,377.521576 306.036469,378.330109 306.397461,378.635101 
	C306.397461,376.022308 306.397461,373.530182 306.862335,370.951752 
M165.958878,369.924835 
	C166.403015,372.300140 166.847153,374.675446 166.438934,376.996094 
	C161.455338,377.582550 162.217468,373.647339 161.810089,370.627838 
	C158.522003,373.280762 157.972336,374.713104 160.685104,377.266205 
	C161.900772,378.410370 165.011337,377.541138 167.763153,377.939240 
	C168.564056,377.707031 170.070007,377.439941 170.060516,377.247894 
	C169.909821,374.203583 169.482269,371.174042 169.291641,368.130280 
	C169.151764,365.896973 169.264221,363.647888 169.264221,361.405823 
	C168.642151,361.402405 168.020081,361.398956 167.398010,361.395538 
	C167.248764,363.066803 167.268539,364.777924 166.887207,366.394440 
	C166.656372,367.372925 165.803925,368.204742 164.689438,369.050110 
	C164.433350,369.159424 164.177261,369.268768 163.921173,369.378082 
	C164.357788,369.551239 164.794388,369.724396 165.958878,369.924835 
M280.958832,369.924835 
	C281.403015,372.300140 281.847168,374.675446 281.438965,376.996094 
	C276.455444,377.582550 277.217316,373.647522 276.791016,370.485962 
	C272.678986,372.459656 273.820679,375.608459 275.692993,377.242615 
	C276.992523,378.376801 280.011292,377.541138 282.763123,377.939209 
	C283.564026,377.707062 285.069977,377.440033 285.060486,377.247955 
	C284.909821,374.203644 284.482269,371.174072 284.291656,368.130310 
	C284.151764,365.897003 284.264221,363.647888 284.264221,361.405823 
	C283.642151,361.402405 283.020081,361.398956 282.398010,361.395538 
	C282.248749,363.066803 282.268524,364.777954 281.887177,366.394440 
	C281.656342,367.372925 280.803894,368.204742 279.689423,369.050140 
	C279.433350,369.159485 279.177246,369.268829 278.921173,369.378174 
	C279.357788,369.551300 279.794373,369.724457 280.958832,369.924835 
M171.110321,326.014435 
	C170.336685,326.307281 169.485870,326.968323 168.803558,326.825348 
	C166.566208,326.356506 163.435577,326.263123 162.408340,324.794373 
	C160.760986,322.439056 161.321243,319.358093 164.421631,317.608337 
	C164.816910,317.385254 165.047150,316.869659 165.353851,316.489594 
	C162.231766,316.852600 159.188354,317.620972 157.607071,319.573486 
	C156.084412,321.453613 155.033798,324.891510 155.717682,327.021423 
	C156.293304,328.814117 159.891327,331.044342 161.739517,330.721680 
	C165.373993,330.087128 168.722382,327.813782 172.887268,326.105408 
	C173.588379,325.962067 174.289490,325.818726 175.109879,326.427460 
	C177.419220,332.035004 181.512939,331.815826 188.355499,325.718323 
	C181.140503,326.543701 180.174911,325.671539 180.099701,318.054871 
	C180.050339,313.056183 180.131180,308.056091 180.072083,303.057617 
	C179.966705,294.143585 175.727753,291.295715 166.296890,294.243195 
	C163.401794,295.822693 160.318176,297.148407 157.696503,299.095947 
	C156.505234,299.980865 155.881821,302.061127 155.714813,303.673157 
	C155.651596,304.283325 158.077866,305.934784 158.539642,305.669128 
	C159.926193,304.871582 161.019211,303.449097 162.015335,302.112854 
	C163.755432,299.778564 165.337799,297.326691 167.749741,295.021698 
	C169.745071,296.218201 173.289261,297.231201 173.456665,298.644257 
	C174.051865,303.668427 173.496750,308.828888 172.950775,314.132202 
	C173.165009,314.359406 173.379242,314.586609 174.126938,315.365967 
	C174.040466,318.552094 173.953995,321.738251 173.290527,324.942535 
	C172.827255,325.254578 172.363983,325.566650 171.110321,326.014435 
M357.291321,295.952820 
	C349.985596,299.047760 347.764648,305.511841 347.476379,312.461548 
	C347.199615,319.133667 349.350708,325.333679 355.551453,329.126190 
	C360.981415,332.447266 368.201752,331.533630 371.226440,327.336487 
	C360.767517,328.788635 354.785217,323.709869 353.913666,313.023712 
	C353.406708,306.808136 354.971252,301.245392 358.397369,295.732666 
	C358.453339,295.457703 358.509277,295.182709 358.565247,294.907745 
	C358.383636,295.257111 358.202057,295.606445 357.291321,295.952820 
M219.165482,323.053223 
	C217.883850,323.817200 216.655548,324.694580 215.311844,325.326569 
	C207.115921,329.181580 201.966080,326.025360 201.759979,316.971344 
	C201.642715,311.819733 201.720810,306.663635 201.713959,301.509552 
	C201.710373,298.801941 201.713333,296.094330 201.713333,292.345520 
	C196.940796,294.485596 193.566422,295.998718 190.192032,297.511841 
	C195.187561,297.381409 195.981094,300.352631 195.999603,304.012726 
	C196.025665,309.166748 195.944824,314.322449 196.047363,319.474701 
	C196.244110,329.360229 203.459610,333.933380 212.363342,329.631531 
	C215.449051,328.140656 218.140121,325.833008 221.001785,324.719360 
	C221.520905,326.822937 222.040009,328.926483 222.667160,331.467865 
	C225.433868,330.176361 227.234406,329.342438 229.029175,328.496246 
	C230.837616,327.643616 232.640305,326.778778 234.445526,325.919281 
	C226.835144,326.089508 226.148743,325.446503 226.079544,317.730957 
	C226.060120,315.564972 226.075409,313.398682 226.075333,311.232513 
	C226.075150,305.328461 226.075256,299.424408 226.075256,292.612640 
	C221.566132,294.633850 218.076935,296.197876 215.578903,297.317596 
	C217.471054,298.901794 220.469162,300.230225 220.511368,301.646729 
	C220.722351,308.728180 220.158066,315.832703 219.165482,323.053223 
M418.089813,304.016632 
	C413.158325,304.016632 408.226868,304.016632 402.324158,304.016632 
	C403.647339,300.884705 404.595367,298.640778 405.636108,296.177460 
	C399.314941,299.030792 395.051483,306.528442 395.344513,313.797272 
	C395.645172,321.255798 400.447998,328.001556 407.074890,330.273010 
	C413.482056,332.469116 421.589630,330.473297 426.369537,324.735626 
	C418.941132,328.534821 412.213043,329.727142 406.774902,323.886108 
	C402.275543,319.053345 401.279022,312.869415 402.414429,305.852783 
	C410.409180,305.852783 417.988220,305.852783 425.458649,305.852783 
	C426.541290,299.247192 424.772003,295.222900 419.872101,293.733734 
	C417.402618,292.983215 414.635010,293.213715 411.551453,293.028778 
	C411.296356,293.137909 411.041260,293.247040 410.786163,293.356171 
	C411.097137,293.570801 411.408142,293.785461 412.243866,294.528809 
	C417.073090,295.319275 419.612518,298.134338 419.456329,303.267334 
	C419.259216,303.443756 419.114197,303.655792 418.089813,304.016632 
M377.280853,321.964386 
	C377.800354,324.178619 378.044769,326.516052 378.957733,328.553986 
	C379.400421,329.542084 381.391083,330.788116 382.173096,330.506622 
	C385.410431,329.341339 388.453857,327.637146 391.568481,326.130890 
	C384.364655,326.620880 383.139679,325.643799 383.111572,318.349579 
	C383.046906,301.566467 383.089386,284.782959 383.088409,267.999603 
	C383.088287,266.235474 383.088379,264.471313 383.088379,261.684967 
	C378.900848,263.734070 375.639191,265.330139 373.513519,266.370270 
	C375.226685,268.644836 377.584167,270.343140 377.701141,272.183868 
	C378.151093,279.262634 377.883514,286.387024 377.883514,293.462341 
	C374.014893,292.876434 370.502441,292.344513 365.860626,291.641510 
	C370.084564,294.591309 373.085114,296.686707 376.033752,299.755371 
	C376.022614,305.297150 375.900269,310.842316 376.069092,316.378601 
	C376.118805,318.008148 376.992981,319.612549 377.280853,321.964386 
M289.102600,229.114792 
	C285.846069,229.820847 283.797211,228.735443 282.558075,225.461197 
	C280.911194,221.109589 279.149017,216.737213 276.812500,212.738281 
	C275.652069,210.752228 273.213470,209.399963 271.146393,208.086151 
	C268.721100,206.544632 265.400879,205.925720 263.669739,203.886917 
	C260.794037,200.500137 258.288971,197.187241 253.401276,197.717651 
	C252.679047,191.554184 253.930496,190.154495 260.043701,189.797119 
	C280.320251,188.611801 295.060272,177.209656 299.679108,159.137161 
	C301.623840,151.527679 301.619354,151.519318 294.112152,149.178787 
	C294.755890,147.650726 295.408478,146.153625 296.019989,144.639938 
	C297.592285,140.748138 296.897980,139.894394 292.763214,140.110031 
	C283.631927,140.586227 274.487183,140.827850 265.362946,141.403854 
	C261.581207,141.642578 257.688354,142.029602 254.116302,143.184830 
	C249.922791,144.541061 247.979660,143.589752 246.883698,139.316544 
	C245.194031,132.728394 240.605865,128.702744 234.007248,127.561234 
	C227.924820,126.509033 221.913498,128.738358 219.253326,133.851562 
	C215.719208,140.644684 210.033676,143.933945 204.052429,147.497833 
	C196.181641,152.187561 195.926407,160.481613 203.055344,166.253510 
	C207.189926,162.654709 211.169647,158.951172 215.445786,155.629211 
	C216.581238,154.747116 218.627167,155.037018 220.255051,154.788803 
	C220.352203,156.385498 220.591766,157.988663 220.519745,159.577698 
	C220.305008,164.314453 218.972412,169.247620 219.883179,173.737595 
	C221.859848,183.482208 230.639648,189.394928 241.882416,189.804672 
	C248.234558,190.036179 249.673950,191.771088 248.271286,197.811371 
	C247.041229,197.895264 245.739426,198.039352 244.435394,198.064011 
	C236.084793,198.221802 230.627533,202.562134 228.097000,210.397430 
	C227.495560,212.259720 225.599640,214.439331 223.814758,215.044678 
	C218.680283,216.785995 216.369339,220.119125 216.134689,225.306763 
	C216.083603,226.436020 215.744736,227.552261 215.520844,228.769943 
	C214.713654,228.902069 213.889175,229.316483 213.473175,229.062332 
	C208.791656,226.201996 204.220734,227.275452 199.610458,229.212967 
	C199.033524,229.455429 198.218124,229.131668 197.642319,229.375336 
	C196.555435,229.835312 195.562500,230.517273 194.530518,231.106964 
	C195.606613,231.934998 197.075958,233.704788 197.697906,233.445099 
	C203.796295,230.898758 209.768265,232.158859 215.883545,233.215424 
	C217.830612,233.551834 220.040405,232.350952 222.133255,231.867737 
	C223.073669,231.650589 224.295746,230.986191 224.925537,231.343475 
	C233.115646,235.989716 242.218155,229.136719 250.458420,233.417313 
	C251.412857,233.913132 253.149078,233.368057 254.336014,232.864838 
	C257.840912,231.378799 261.195526,230.870346 264.775726,232.759186 
	C265.849182,233.325500 267.476044,233.329666 268.708801,233.024139 
	C274.514374,231.585236 280.209412,232.441452 286.062561,232.789871 
	C291.947662,233.140167 297.956085,230.865997 303.897736,233.386993 
	C304.596710,233.683563 306.306610,233.191437 306.529999,232.647186 
	C306.878510,231.798035 306.266815,229.662872 306.214905,229.667831 
	C300.739624,230.192703 295.497375,224.232193 289.102600,229.114792 
M132.196930,300.409149 
	C132.497406,307.059143 132.659668,313.719238 133.144897,320.355743 
	C133.492691,325.112701 133.192139,329.142944 127.148201,329.693726 
	C133.680008,329.693726 140.211807,329.693726 146.743607,329.693726 
	C143.502884,328.456879 139.881241,328.481659 139.736343,323.406860 
	C139.361160,310.267639 138.666885,297.134613 137.897217,284.011017 
	C137.563568,278.321625 137.590790,273.176178 145.343979,272.362671 
	C143.522629,271.983490 142.038284,272.197754 140.637451,271.946411 
	C134.569489,270.857727 131.811844,273.731018 129.719345,279.258118 
	C126.070747,288.895630 121.519608,298.192108 117.325676,307.622162 
	C115.660370,311.366608 113.938889,315.086090 111.895126,319.582184 
	C110.710129,317.515228 109.919556,316.313477 109.300491,315.029022 
	C103.227341,302.428253 97.288788,289.760651 91.026337,277.255035 
	C89.974060,275.153748 87.827087,272.915833 85.699318,272.211975 
	C83.064873,271.340454 79.922813,272.003326 77.000053,272.003326 
	C83.167313,274.161469 83.426277,278.813446 83.188919,284.127350 
	C82.698677,295.102722 82.607437,306.095581 82.314240,317.080261 
	C82.176033,322.258545 83.318810,328.101196 76.107407,329.620239 
	C81.398323,329.620239 86.689240,329.620239 91.980148,329.620239 
	C86.124336,328.167542 84.742424,324.232117 84.954811,318.923065 
	C85.374069,308.443542 85.556839,297.954590 85.861748,287.470276 
	C85.895370,286.314087 86.087593,285.162506 86.311974,282.980927 
	C94.217804,299.333466 101.608589,314.620667 109.658295,331.270813 
	C116.996590,314.601746 123.624222,299.546967 130.251846,284.492188 
	C130.893005,284.579834 131.534180,284.667480 132.175339,284.755096 
	C132.175339,289.648865 132.175339,294.542603 132.196930,300.409149 
M252.699677,317.678192 
	C244.138443,304.398499 245.641541,287.414703 256.217041,277.934723 
	C268.402710,267.011353 285.549255,270.718689 291.931732,285.644867 
	C292.205750,286.285736 292.647858,286.854767 293.011658,287.457245 
	C293.689758,284.424103 292.976807,281.679047 293.146118,278.989532 
	C293.410522,274.790070 291.327881,272.581573 287.668243,272.047638 
	C281.468109,271.143097 275.137451,269.850098 268.970001,270.278870 
	C257.127319,271.102203 247.371323,276.525299 242.403046,287.746857 
	C237.717743,298.329224 238.747375,308.949219 245.622131,318.506989 
	C253.591705,329.586853 270.844543,334.078796 285.981384,329.315247 
	C294.171600,326.737793 295.982880,323.396942 293.826599,314.050049 
	C292.873657,315.819214 292.046967,317.181061 291.382141,318.617737 
	C288.348053,325.174622 282.976593,328.397705 276.033264,328.937012 
	C266.479095,329.679016 258.903900,325.797943 252.699677,317.678192 
M341.005951,311.494385 
	C340.487976,299.326294 333.326385,291.862823 322.298859,291.998749 
	C311.307312,292.134216 303.188812,299.693298 302.968597,309.997070 
	C302.714233,321.898651 309.489441,330.430237 319.634186,330.983002 
	C331.745605,331.642944 340.072632,324.388977 341.005951,311.494385 
M210.922943,375.015930 
	C210.923264,385.471832 210.923264,385.471832 212.536209,385.544983 
	C213.186386,382.923370 213.784607,380.511200 214.369644,378.152283 
	C213.570648,375.506561 212.582611,372.234802 211.594574,368.963043 
	C211.161819,369.185364 210.729050,369.407654 210.296295,369.629944 
	C210.505035,371.144470 210.713776,372.658997 210.922943,375.015930 
M361.029999,371.963287 
	C360.451691,370.994446 359.873383,370.025635 359.295044,369.056824 
	C358.989166,369.372345 358.683289,369.687866 358.377380,370.003387 
	C358.735077,373.021149 359.092743,376.038910 359.450409,379.056641 
	C359.951202,379.005371 360.451996,378.954132 360.952789,378.902863 
	C360.952789,376.820465 360.952789,374.738098 361.029999,371.963287 
M220.991760,373.811981 
	C220.483673,372.946594 219.975571,372.081177 219.467468,371.215790 
	C219.048294,371.626892 218.629135,372.038025 218.209976,372.449127 
	C219.124649,373.112396 220.039337,373.775696 220.991760,373.811981 
M225.931686,375.286957 
	C225.984848,375.772400 226.038010,376.257843 226.091171,376.743317 
	C226.521622,376.630981 226.952072,376.518646 227.382538,376.406281 
	C227.091125,375.990082 226.799713,375.573883 225.931686,375.286957 
M311.885864,370.292969 
	C311.937256,370.781342 311.988647,371.269684 312.040039,371.758057 
	C312.470825,371.645844 312.901611,371.533600 313.332397,371.421356 
	C313.043304,371.004181 312.754211,370.587006 311.885864,370.292969 
M360.469147,295.144409 
	C360.539337,294.756073 360.609558,294.367706 360.679749,293.979370 
	C360.511993,294.275574 360.344269,294.571808 360.469147,295.144409 
M374.791687,325.917694 
	C374.651154,325.596283 374.510651,325.274902 374.370117,324.953491 
	C374.399139,325.349701 374.428162,325.745911 374.791687,325.917694 
M167.208008,315.081482 
	C167.348694,315.403198 167.489365,315.724945 167.630035,316.046661 
	C167.600937,315.650024 167.571854,315.253387 167.208008,315.081482 
M218.477325,377.435150 
	C218.535049,377.206451 218.592773,376.977783 218.650497,376.749084 
	C218.503906,376.897552 218.357315,377.046051 218.477325,377.435150 
M409.560455,295.512177 
	C409.560455,295.512177 409.480164,295.554382 409.560455,295.512177 
M363.512543,292.439270 
	C363.512543,292.439270 363.555023,292.519989 363.512543,292.439270 
M362.438354,294.487274 
	C362.438354,294.487274 362.520142,294.444061 362.438354,294.487274 
M370.797485,268.520294 
	C370.797485,268.520294 370.460602,268.387634 370.460602,268.387634 
	C370.460602,268.387634 370.548309,268.701843 370.797485,268.520294 
z"/>
<path fill="#C78A89" opacity="1.000000" stroke="none" 
	d="
M289.501526,229.056793 
	C295.497375,224.232193 300.739624,230.192703 306.214905,229.667831 
	C306.266815,229.662872 306.878510,231.798035 306.529999,232.647186 
	C306.306610,233.191437 304.596710,233.683563 303.897736,233.386993 
	C297.956085,230.865997 291.947662,233.140167 286.062561,232.789871 
	C280.209412,232.441452 274.514374,231.585236 268.708801,233.024139 
	C267.476044,233.329666 265.849182,233.325500 264.775726,232.759186 
	C261.195526,230.870346 257.840912,231.378799 254.336014,232.864838 
	C253.149078,233.368057 251.412857,233.913132 250.458420,233.417313 
	C242.218155,229.136719 233.115646,235.989716 224.925537,231.343475 
	C224.295746,230.986191 223.073669,231.650589 222.133255,231.867737 
	C220.040405,232.350952 217.830612,233.551834 215.883545,233.215424 
	C209.768265,232.158859 203.796295,230.898758 197.697906,233.445099 
	C197.075958,233.704788 195.606613,231.934998 194.530518,231.106964 
	C195.562500,230.517273 196.555435,229.835312 197.642319,229.375336 
	C198.218124,229.131668 199.033524,229.455429 199.610458,229.212967 
	C204.220734,227.275452 208.791656,226.201996 213.473175,229.062332 
	C213.889175,229.316483 214.713654,228.902069 215.520844,228.769943 
	C215.744736,227.552261 216.083603,226.436020 216.134689,225.306763 
	C216.369339,220.119125 218.680283,216.785995 223.814758,215.044678 
	C225.599640,214.439331 227.495560,212.259720 228.097000,210.397430 
	C230.627533,202.562134 236.084793,198.221802 244.435394,198.064011 
	C245.739426,198.039352 247.041229,197.895264 248.271286,197.811371 
	C249.673950,191.771088 248.234558,190.036179 241.882416,189.804672 
	C230.639648,189.394928 221.859848,183.482208 219.883179,173.737595 
	C218.972412,169.247620 220.305008,164.314453 220.519745,159.577698 
	C220.591766,157.988663 220.352203,156.385498 220.255051,154.788803 
	C218.627167,155.037018 216.581238,154.747116 215.445786,155.629211 
	C211.169647,158.951172 207.189926,162.654709 203.055344,166.253510 
	C195.926407,160.481613 196.181641,152.187561 204.052429,147.497833 
	C210.033676,143.933945 215.719208,140.644684 219.253326,133.851562 
	C221.913498,128.738358 227.924820,126.509033 234.007248,127.561234 
	C240.605865,128.702744 245.194031,132.728394 246.883698,139.316544 
	C247.979660,143.589752 249.922791,144.541061 254.116302,143.184830 
	C257.688354,142.029602 261.581207,141.642578 265.362946,141.403854 
	C274.487183,140.827850 283.631927,140.586227 292.763214,140.110031 
	C296.897980,139.894394 297.592285,140.748138 296.019989,144.639938 
	C295.408478,146.153625 294.755890,147.650726 294.112152,149.178787 
	C301.619354,151.519318 301.623840,151.527679 299.679108,159.137161 
	C295.060272,177.209656 280.320251,188.611801 260.043701,189.797119 
	C253.930496,190.154495 252.679047,191.554184 253.401276,197.717651 
	C258.288971,197.187241 260.794037,200.500137 263.669739,203.886917 
	C265.400879,205.925720 268.721100,206.544632 271.146393,208.086151 
	C273.213470,209.399963 275.652069,210.752228 276.812500,212.738281 
	C279.149017,216.737213 280.911194,221.109589 282.558075,225.461197 
	C283.797211,228.735443 285.846069,229.820847 289.501526,229.056793 
M246.563202,167.717422 
	C242.515579,160.785233 243.297714,154.058548 246.812149,148.730743 
	C245.571136,146.055481 244.344299,144.261398 243.897552,142.290512 
	C242.475510,136.016998 238.968155,132.105774 233.215088,131.232330 
	C228.494186,130.515594 224.870850,132.740479 221.739319,136.007843 
	C218.788895,139.086273 220.564163,141.710175 222.440720,144.412018 
	C222.877350,145.040665 222.875458,145.988693 223.025864,146.798950 
	C224.219559,153.229538 226.245071,159.609985 222.986664,166.116638 
	C222.326019,167.435898 222.746826,169.420456 222.993973,171.049011 
	C224.012100,177.758194 228.013931,182.212860 234.170456,184.590042 
	C238.211334,186.150314 242.596176,188.003021 245.560699,182.774246 
	C247.529358,184.655701 249.388367,187.679779 250.799973,187.483658 
	C252.822800,187.202621 254.518997,184.570663 256.319763,182.973419 
	C257.718048,184.005661 259.051453,185.840256 260.362885,185.824677 
	C271.686157,185.690048 281.113495,181.349823 288.869720,172.433777 
	C282.533783,170.984177 277.181549,170.871078 271.397705,173.162704 
	C262.591522,176.651840 253.743713,176.883469 246.563202,167.717422 
M283.389526,153.796356 
	C282.360168,154.880783 281.524811,156.360336 280.266357,156.978180 
	C275.867126,159.138000 271.397034,161.214706 266.782349,162.834305 
	C265.530518,163.273636 263.674316,161.990860 262.095490,161.498459 
	C263.500305,160.687225 264.882996,159.832916 266.324127,159.092361 
	C266.729279,158.884186 267.310303,159.042450 267.803497,158.977783 
	C275.353210,157.987915 281.317139,152.740906 283.108704,145.631012 
	C274.893768,145.631012 266.569794,144.931595 258.421356,145.827911 
	C250.290878,146.722260 246.604034,153.170151 247.970154,161.555222 
	C249.011688,167.948059 255.888672,172.680023 262.987427,171.711288 
	C276.967407,169.803528 286.751068,162.069412 291.276825,143.953156 
	C286.014557,145.106522 286.584045,150.556564 283.389526,153.796356 
M273.078949,228.800491 
	C274.860809,227.967957 276.642700,227.135422 278.721069,226.164352 
	C277.509033,223.232300 276.170776,220.385757 275.151581,217.429230 
	C273.909485,213.826035 271.914825,211.716812 267.812988,211.182724 
	C265.685364,210.905685 263.113220,209.266037 261.929840,207.462509 
	C259.066132,203.098053 255.615356,201.063110 250.360138,201.854050 
	C247.922745,202.220886 245.379593,201.816757 242.893753,201.944427 
	C237.607040,202.215958 233.287262,205.849777 232.511536,210.533127 
	C243.173508,211.941696 243.175781,211.940933 246.736282,222.619949 
	C247.208710,224.036896 247.453613,225.570084 248.155746,226.857544 
	C248.737152,227.923615 250.123444,229.628784 250.661011,229.462265 
	C253.698807,228.521225 257.604401,227.855423 259.250366,225.638000 
	C260.994080,223.288788 260.977936,219.265060 257.229523,217.010300 
	C256.176331,216.376770 255.520248,215.082962 254.335876,213.682816 
	C260.534729,213.027802 263.132385,215.738647 263.163239,221.795975 
	C263.203827,229.772705 264.388062,230.702972 273.078949,228.800491 
M240.851562,227.201782 
	C241.872833,226.870361 242.894104,226.538956 243.867859,226.222961 
	C241.387558,213.722076 238.568222,212.147827 227.330124,217.797852 
	C226.290710,218.320419 225.257324,218.891144 224.160172,219.256454 
	C219.566422,220.786087 219.551392,224.019501 220.280029,226.880325 
	C223.492615,227.570099 226.015610,227.788727 228.282150,228.668259 
	C232.511124,230.309311 236.384857,229.902512 240.851562,227.201782 
M212.304565,146.817307 
	C210.022385,148.175354 207.781448,149.609375 205.449158,150.875092 
	C201.059479,153.257309 200.962173,156.467346 203.110062,160.052856 
	C207.683655,156.856873 211.904526,153.390381 216.602371,150.783401 
	C220.567139,148.583237 220.197800,146.775101 217.356430,144.006927 
	C215.803604,144.865036 214.368454,145.658112 212.304565,146.817307 
M293.147797,165.730133 
	C294.455414,162.073212 295.763000,158.416275 297.070618,154.759354 
	C296.717072,154.396927 296.363525,154.034485 296.009979,153.672043 
	C294.466766,154.182495 292.315613,154.221481 291.488922,155.287552 
	C288.418884,159.246597 285.784760,163.543671 282.309204,168.723984 
	C286.377594,167.802399 289.533203,167.087570 293.147797,165.730133 
z"/>
<path fill="#C68989" opacity="1.000000" stroke="none" 
	d="
M132.186127,299.922729 
	C132.175339,294.542603 132.175339,289.648865 132.175339,284.755096 
	C131.534180,284.667480 130.893005,284.579834 130.251846,284.492188 
	C123.624222,299.546967 116.996590,314.601746 109.658295,331.270813 
	C101.608589,314.620667 94.217804,299.333466 86.311974,282.980927 
	C86.087593,285.162506 85.895370,286.314087 85.861748,287.470276 
	C85.556839,297.954590 85.374069,308.443542 84.954811,318.923065 
	C84.742424,324.232117 86.124336,328.167542 91.980148,329.620239 
	C86.689240,329.620239 81.398323,329.620239 76.107407,329.620239 
	C83.318810,328.101196 82.176033,322.258545 82.314240,317.080261 
	C82.607437,306.095581 82.698677,295.102722 83.188919,284.127350 
	C83.426277,278.813446 83.167313,274.161469 77.000053,272.003326 
	C79.922813,272.003326 83.064873,271.340454 85.699318,272.211975 
	C87.827087,272.915833 89.974060,275.153748 91.026337,277.255035 
	C97.288788,289.760651 103.227341,302.428253 109.300491,315.029022 
	C109.919556,316.313477 110.710129,317.515228 111.895126,319.582184 
	C113.938889,315.086090 115.660370,311.366608 117.325676,307.622162 
	C121.519608,298.192108 126.070747,288.895630 129.719345,279.258118 
	C131.811844,273.731018 134.569489,270.857727 140.637451,271.946411 
	C142.038284,272.197754 143.522629,271.983490 145.343979,272.362671 
	C137.590790,273.176178 137.563568,278.321625 137.897217,284.011017 
	C138.666885,297.134613 139.361160,310.267639 139.736343,323.406860 
	C139.881241,328.481659 143.502884,328.456879 146.743607,329.693726 
	C140.211807,329.693726 133.680008,329.693726 127.148201,329.693726 
	C133.192139,329.142944 133.492691,325.112701 133.144897,320.355743 
	C132.659668,313.719238 132.497406,307.059143 132.186127,299.922729 
z"/>
<path fill="#C78A89" opacity="1.000000" stroke="none" 
	d="
M252.895813,317.985657 
	C258.903900,325.797943 266.479095,329.679016 276.033264,328.937012 
	C282.976593,328.397705 288.348053,325.174622 291.382141,318.617737 
	C292.046967,317.181061 292.873657,315.819214 293.826599,314.050049 
	C295.982880,323.396942 294.171600,326.737793 285.981384,329.315247 
	C270.844543,334.078796 253.591705,329.586853 245.622131,318.506989 
	C238.747375,308.949219 237.717743,298.329224 242.403046,287.746857 
	C247.371323,276.525299 257.127319,271.102203 268.970001,270.278870 
	C275.137451,269.850098 281.468109,271.143097 287.668243,272.047638 
	C291.327881,272.581573 293.410522,274.790070 293.146118,278.989532 
	C292.976807,281.679047 293.689758,284.424103 293.011658,287.457245 
	C292.647858,286.854767 292.205750,286.285736 291.931732,285.644867 
	C285.549255,270.718689 268.402710,267.011353 256.217041,277.934723 
	C245.641541,287.414703 244.138443,304.398499 252.895813,317.985657 
z"/>
<path fill="#C68989" opacity="1.000000" stroke="none" 
	d="
M341.001465,311.933777 
	C340.072632,324.388977 331.745605,331.642944 319.634186,330.983002 
	C309.489441,330.430237 302.714233,321.898651 302.968597,309.997070 
	C303.188812,299.693298 311.307312,292.134216 322.298859,291.998749 
	C333.326385,291.862823 340.487976,299.326294 341.001465,311.933777 
M331.075592,300.620209 
	C329.434509,298.976990 327.990906,297.050232 326.115295,295.743683 
	C320.474640,291.814453 312.899292,293.798615 310.651337,299.999054 
	C307.473907,308.763031 308.927399,317.146973 314.520447,324.517548 
	C317.409241,328.324432 321.645844,329.876984 326.551910,328.766724 
	C330.862122,327.791321 333.234467,324.664734 333.768433,320.722412 
	C334.662018,314.125244 335.058563,307.405701 331.075592,300.620209 
z"/>
<path fill="#C58787" opacity="1.000000" stroke="none" 
	d="
M376.085632,298.782135 
	C373.085114,296.686707 370.084564,294.591309 365.860626,291.641510 
	C370.502441,292.344513 374.014893,292.876434 377.883514,293.462341 
	C377.883514,286.387024 378.151093,279.262634 377.701141,272.183868 
	C377.584167,270.343140 375.226685,268.644836 373.513519,266.370270 
	C375.639191,265.330139 378.900848,263.734070 383.088379,261.684967 
	C383.088379,264.471313 383.088287,266.235474 383.088409,267.999603 
	C383.089386,284.782959 383.046906,301.566467 383.111572,318.349579 
	C383.139679,325.643799 384.364655,326.620880 391.568481,326.130890 
	C388.453857,327.637146 385.410431,329.341339 382.173096,330.506622 
	C381.391083,330.788116 379.400421,329.542084 378.957733,328.553986 
	C378.044769,326.516052 377.800354,324.178619 377.548706,321.206543 
	C377.873657,314.656464 378.057129,308.860809 377.898956,303.074493 
	C377.859436,301.628265 376.719696,300.212097 376.085632,298.782135 
z"/>
<path fill="#C68989" opacity="1.000000" stroke="none" 
	d="
M412.002197,293.000610 
	C414.635010,293.213715 417.402618,292.983215 419.872101,293.733734 
	C424.772003,295.222900 426.541290,299.247192 425.458649,305.852783 
	C417.988220,305.852783 410.409180,305.852783 402.414429,305.852783 
	C401.279022,312.869415 402.275543,319.053345 406.774902,323.886108 
	C412.213043,329.727142 418.941132,328.534821 426.369537,324.735626 
	C421.589630,330.473297 413.482056,332.469116 407.074890,330.273010 
	C400.447998,328.001556 395.645172,321.255798 395.344513,313.797272 
	C395.051483,306.528442 399.314941,299.030792 405.636108,296.177460 
	C404.595367,298.640778 403.647339,300.884705 402.324158,304.016632 
	C408.226868,304.016632 413.158325,304.016632 418.771729,303.917572 
	C419.735138,303.635101 419.843018,303.378601 419.777222,303.049042 
	C419.612518,298.134338 417.073090,295.319275 412.047607,294.013153 
	C411.901642,293.331879 411.951935,293.166229 412.002197,293.000610 
z"/>
<path fill="#C68989" opacity="1.000000" stroke="none" 
	d="
M221.011444,323.898438 
	C218.140121,325.833008 215.449051,328.140656 212.363342,329.631531 
	C203.459610,333.933380 196.244110,329.360229 196.047363,319.474701 
	C195.944824,314.322449 196.025665,309.166748 195.999603,304.012726 
	C195.981094,300.352631 195.187561,297.381409 190.192032,297.511841 
	C193.566422,295.998718 196.940796,294.485596 201.713333,292.345520 
	C201.713333,296.094330 201.710373,298.801941 201.713959,301.509552 
	C201.720810,306.663635 201.642715,311.819733 201.759979,316.971344 
	C201.966080,326.025360 207.115921,329.181580 215.311844,325.326569 
	C216.655548,324.694580 217.883850,323.817200 219.745941,323.106232 
	C220.554749,323.405640 220.783096,323.652039 221.011444,323.898438 
z"/>
<path fill="#C68989" opacity="1.000000" stroke="none" 
	d="
M358.035675,295.969818 
	C354.971252,301.245392 353.406708,306.808136 353.913666,313.023712 
	C354.785217,323.709869 360.767517,328.788635 371.226440,327.336487 
	C368.201752,331.533630 360.981415,332.447266 355.551453,329.126190 
	C349.350708,325.333679 347.199615,319.133667 347.476379,312.461548 
	C347.764648,305.511841 349.985596,299.047760 357.645081,295.976318 
	C357.998840,295.999786 358.035675,295.969818 358.035675,295.969818 
z"/>
<path fill="#C68989" opacity="1.000000" stroke="none" 
	d="
M173.867523,324.924377 
	C173.953995,321.738251 174.040466,318.552094 173.826553,314.866028 
	C173.526169,314.366089 173.377258,313.937714 173.377258,313.937714 
	C173.496750,308.828888 174.051865,303.668427 173.456665,298.644257 
	C173.289261,297.231201 169.745071,296.218201 167.373154,294.796051 
	C166.996567,294.570404 167.003754,294.216034 167.003754,294.216034 
	C175.727753,291.295715 179.966705,294.143585 180.072083,303.057617 
	C180.131180,308.056091 180.050339,313.056183 180.099701,318.054871 
	C180.174911,325.671539 181.140503,326.543701 188.355499,325.718323 
	C181.512939,331.815826 177.419220,332.035004 174.886108,325.900116 
	C174.422577,325.178741 174.157639,325.029266 173.867523,324.924377 
z"/>
<path fill="#C58787" opacity="1.000000" stroke="none" 
	d="
M221.006622,324.308899 
	C220.783096,323.652039 220.554749,323.405640 220.096405,323.044189 
	C220.158066,315.832703 220.722351,308.728180 220.511368,301.646729 
	C220.469162,300.230225 217.471054,298.901794 215.578903,297.317596 
	C218.076935,296.197876 221.566132,294.633850 226.075256,292.612640 
	C226.075256,299.424408 226.075150,305.328461 226.075333,311.232513 
	C226.075409,313.398682 226.060120,315.564972 226.079544,317.730957 
	C226.148743,325.446503 226.835144,326.089508 234.445526,325.919281 
	C232.640305,326.778778 230.837616,327.643616 229.029175,328.496246 
	C227.234406,329.342438 225.433868,330.176361 222.667160,331.467865 
	C222.040009,328.926483 221.520905,326.822937 221.006622,324.308899 
z"/>
<path fill="#C78A89" opacity="1.000000" stroke="none" 
	d="
M172.189133,326.218414 
	C168.722382,327.813782 165.373993,330.087128 161.739517,330.721680 
	C159.891327,331.044342 156.293304,328.814117 155.717682,327.021423 
	C155.033798,324.891510 156.084412,321.453613 157.607071,319.573486 
	C159.188354,317.620972 162.231766,316.852600 165.353851,316.489594 
	C165.047150,316.869659 164.816910,317.385254 164.421631,317.608337 
	C161.321243,319.358093 160.760986,322.439056 162.408340,324.794373 
	C163.435577,326.263123 166.566208,326.356506 168.803558,326.825348 
	C169.485870,326.968323 170.336685,326.307281 171.578079,326.031982 
	C172.045837,326.049561 172.189133,326.218414 172.189133,326.218414 
z"/>
<path fill="#C78A89" opacity="1.000000" stroke="none" 
	d="
M166.650330,294.229614 
	C167.003754,294.216034 166.996567,294.570404 166.991409,294.747253 
	C165.337799,297.326691 163.755432,299.778564 162.015335,302.112854 
	C161.019211,303.449097 159.926193,304.871582 158.539642,305.669128 
	C158.077866,305.934784 155.651596,304.283325 155.714813,303.673157 
	C155.881821,302.061127 156.505234,299.980865 157.696503,299.095947 
	C160.318176,297.148407 163.401794,295.822693 166.650330,294.229614 
z"/>
<path fill="#605857" opacity="1.000000" stroke="none" 
	d="
M282.291351,377.050751 
	C281.847168,374.675446 281.403015,372.300140 280.545410,369.712463 
	C280.131958,369.500122 280.230713,369.102448 280.230713,369.102448 
	C280.803894,368.204742 281.656342,367.372925 281.887177,366.394440 
	C282.268524,364.777954 282.248749,363.066803 282.398010,361.395538 
	C283.020081,361.398956 283.642151,361.402405 284.264221,361.405823 
	C284.264221,363.647888 284.151764,365.897003 284.291656,368.130310 
	C284.482269,371.174072 284.909821,374.203644 285.060486,377.247955 
	C285.069977,377.440033 283.564026,377.707062 282.597046,377.633789 
	C282.430969,377.328339 282.291351,377.050751 282.291351,377.050751 
z"/>
<path fill="#605857" opacity="1.000000" stroke="none" 
	d="
M165.230743,369.102448 
	C165.803925,368.204742 166.656372,367.372925 166.887207,366.394440 
	C167.268539,364.777924 167.248764,363.066803 167.398010,361.395538 
	C168.020081,361.398956 168.642151,361.402405 169.264221,361.405823 
	C169.264221,363.647888 169.151764,365.896973 169.291641,368.130280 
	C169.482269,371.174042 169.909821,374.203583 170.060516,377.247894 
	C170.070007,377.439941 168.564056,377.707031 167.597076,377.633759 
	C167.430984,377.328278 167.291290,377.050751 167.291290,377.050751 
	C166.847153,374.675446 166.403015,372.300140 165.545425,369.712463 
	C165.131973,369.500122 165.230743,369.102448 165.230743,369.102448 
z"/>
<path fill="#F1E3DD" opacity="1.000000" stroke="none" 
	d="
M376.059692,299.268738 
	C376.719696,300.212097 377.859436,301.628265 377.898956,303.074493 
	C378.057129,308.860809 377.873657,314.656464 377.652893,320.838562 
	C376.992981,319.612549 376.118805,318.008148 376.069092,316.378601 
	C375.900269,310.842316 376.022614,305.297150 376.059692,299.268738 
z"/>
<path fill="#7C7371" opacity="1.000000" stroke="none" 
	d="
M210.922729,374.594727 
	C210.713776,372.658997 210.505035,371.144470 210.296295,369.629944 
	C210.729050,369.407654 211.161819,369.185364 211.594574,368.963043 
	C212.582611,372.234802 213.570648,375.506561 214.369644,378.152283 
	C213.784607,380.511200 213.186386,382.923370 212.536209,385.544983 
	C210.923264,385.471832 210.923264,385.471832 210.922729,374.594727 
z"/>
<path fill="#7C7371" opacity="1.000000" stroke="none" 
	d="
M306.397461,371.038086 
	C306.397461,373.530182 306.397461,376.022308 306.397461,378.635101 
	C306.036469,378.330109 304.200714,377.521576 304.149597,376.612701 
	C303.864990,371.549866 304.012909,366.462708 304.012909,361.383881 
	C304.706665,361.369507 305.400421,361.355133 306.094177,361.340759 
	C306.094177,363.910950 306.094177,366.481110 306.209503,369.761902 
	C306.349030,370.661011 306.373260,370.849548 306.397461,371.038086 
z"/>
<path fill="#E6D9D3" opacity="1.000000" stroke="none" 
	d="
M281.865173,377.023438 
	C282.291351,377.050751 282.430969,377.328339 282.346436,377.456970 
	C280.011292,377.541138 276.992523,378.376801 275.692993,377.242615 
	C273.820679,375.608459 272.678986,372.459656 276.791016,370.485962 
	C277.217316,373.647522 276.455444,377.582550 281.865173,377.023438 
z"/>
<path fill="#E6D9D3" opacity="1.000000" stroke="none" 
	d="
M166.865112,377.023438 
	C167.291290,377.050751 167.430984,377.328278 167.346497,377.456909 
	C165.011337,377.541138 161.900772,378.410370 160.685104,377.266205 
	C157.972336,374.713104 158.522003,373.280762 161.810089,370.627838 
	C162.217468,373.647339 161.455338,377.582550 166.865112,377.023438 
z"/>
<path fill="#7C7371" opacity="1.000000" stroke="none" 
	d="
M378.994232,378.001862 
	C376.146667,379.991425 374.347809,379.397095 374.069427,375.818420 
	C373.892883,373.548798 374.036438,371.254272 374.036438,368.444580 
	C375.763367,368.737854 377.206665,368.982971 379.094727,369.303619 
	C375.129700,371.335114 374.934204,375.164398 378.590515,378.001862 
	C378.993591,378.007355 378.994232,378.001862 378.994232,378.001862 
z"/>
<path fill="#7C7371" opacity="1.000000" stroke="none" 
	d="
M360.991394,372.309509 
	C360.952789,374.738098 360.952789,376.820465 360.952789,378.902863 
	C360.451996,378.954132 359.951202,379.005371 359.450409,379.056641 
	C359.092743,376.038910 358.735077,373.021149 358.377380,370.003387 
	C358.683289,369.687866 358.989166,369.372345 359.295044,369.056824 
	C359.873383,370.025635 360.451691,370.994446 360.991394,372.309509 
z"/>
<path fill="#E6D9D3" opacity="1.000000" stroke="none" 
	d="
M232.962433,377.971039 
	C232.962433,375.459778 232.962433,372.948486 232.962433,370.488159 
	C236.844360,372.252869 237.037048,373.866455 233.362885,377.936340 
	C232.996979,377.999664 232.962433,377.971039 232.962433,377.971039 
z"/>
<path fill="#E6D9D3" opacity="1.000000" stroke="none" 
	d="
M220.972885,374.125488 
	C220.039337,373.775696 219.124649,373.112396 218.209976,372.449127 
	C218.629135,372.038025 219.048294,371.626892 219.467468,371.215790 
	C219.975571,372.081177 220.483673,372.946594 220.972885,374.125488 
z"/>
<path fill="#E6D9D3" opacity="1.000000" stroke="none" 
	d="
M226.220001,375.222351 
	C226.799713,375.573883 227.091125,375.990082 227.382538,376.406311 
	C226.952072,376.518646 226.521622,376.630981 226.091171,376.743286 
	C226.038010,376.257843 225.984848,375.772400 226.220001,375.222351 
z"/>
<path fill="#E6D9D3" opacity="1.000000" stroke="none" 
	d="
M312.175476,370.231415 
	C312.754211,370.587006 313.043304,371.004181 313.332397,371.421356 
	C312.901611,371.533600 312.470825,371.645844 312.040039,371.758057 
	C311.988647,371.269684 311.937256,370.781342 312.175476,370.231415 
z"/>
<path fill="#E6D9D3" opacity="1.000000" stroke="none" 
	d="
M313.025818,376.019714 
	C312.711395,376.530975 312.397003,377.042206 312.082581,377.553436 
	C311.873566,377.376099 311.664520,377.198792 311.455475,377.021484 
	C311.776611,376.704254 312.097717,376.387024 312.710083,376.035034 
	C313.001312,376.000305 313.025787,376.019714 313.025818,376.019714 
z"/>
<path fill="#E6D9D3" opacity="1.000000" stroke="none" 
	d="
M225.937378,371.951233 
	C226.259491,371.443878 226.581604,370.936554 226.903717,370.429199 
	C227.115448,370.606201 227.327194,370.783203 227.538925,370.960205 
	C227.225052,371.285645 226.911194,371.611115 226.294861,371.967651 
	C225.992401,371.998749 225.937378,371.951233 225.937378,371.951233 
z"/>
<path fill="#F1E3DD" opacity="1.000000" stroke="none" 
	d="
M360.322815,295.006226 
	C360.344269,294.571808 360.511993,294.275574 360.679749,293.979370 
	C360.609558,294.367706 360.539337,294.756073 360.322815,295.006226 
z"/>
<path fill="#C78A89" opacity="1.000000" stroke="none" 
	d="
M173.579025,324.933472 
	C174.157639,325.029266 174.422577,325.178741 174.826477,325.524078 
	C174.289490,325.818726 173.588379,325.962067 172.538208,326.161926 
	C172.189133,326.218414 172.045837,326.049561 171.973267,325.964142 
	C172.363983,325.566650 172.827255,325.254578 173.579025,324.933472 
z"/>
<path fill="#F1E3DD" opacity="1.000000" stroke="none" 
	d="
M374.624451,326.029907 
	C374.428162,325.745911 374.399139,325.349701 374.370117,324.953491 
	C374.510651,325.274902 374.651154,325.596283 374.624451,326.029907 
z"/>
<path fill="#E6D9D3" opacity="1.000000" stroke="none" 
	d="
M306.629883,370.994934 
	C306.373260,370.849548 306.349030,370.661011 306.309753,370.187744 
	C306.779572,369.952423 307.264465,370.001801 307.749390,370.051208 
	C307.453705,370.351379 307.158020,370.651581 306.629883,370.994934 
z"/>
<path fill="#F0E2DC" opacity="1.000000" stroke="none" 
	d="
M167.375397,314.969116 
	C167.571854,315.253387 167.600937,315.650024 167.630035,316.046661 
	C167.489365,315.724945 167.348694,315.403198 167.375397,314.969116 
z"/>
<path fill="#E6D9D3" opacity="1.000000" stroke="none" 
	d="
M279.960083,369.076294 
	C280.230713,369.102448 280.131958,369.500122 280.181458,369.698853 
	C279.794373,369.724457 279.357788,369.551300 278.921173,369.378174 
	C279.177246,369.268829 279.433350,369.159485 279.960083,369.076294 
z"/>
<path fill="#E6D9D3" opacity="1.000000" stroke="none" 
	d="
M218.344025,377.314850 
	C218.357315,377.046051 218.503906,376.897552 218.650497,376.749084 
	C218.592773,376.977783 218.535049,377.206451 218.344025,377.314850 
z"/>
<path fill="#E6D9D3" opacity="1.000000" stroke="none" 
	d="
M164.960083,369.076294 
	C165.230743,369.102448 165.131973,369.500122 165.181488,369.698853 
	C164.794388,369.724396 164.357788,369.551239 163.921173,369.378113 
	C164.177261,369.268768 164.433350,369.159424 164.960083,369.076294 
z"/>
<path fill="#F1E3DD" opacity="1.000000" stroke="none" 
	d="
M358.009644,295.977783 
	C358.202057,295.606445 358.383636,295.257111 358.565247,294.907745 
	C358.509277,295.182709 358.453339,295.457703 358.216522,295.851257 
	C358.035675,295.969818 357.998840,295.999786 358.009644,295.977783 
z"/>
<path fill="#F1E3DD" opacity="1.000000" stroke="none" 
	d="
M411.776825,293.014709 
	C411.951935,293.166229 411.901642,293.331879 411.785217,293.748779 
	C411.408142,293.785461 411.097137,293.570801 410.786163,293.356140 
	C411.041260,293.247040 411.296356,293.137909 411.776825,293.014709 
z"/>
<path fill="#F1E3DD" opacity="1.000000" stroke="none" 
	d="
M409.520325,295.533264 
	C409.480164,295.554382 409.560455,295.512177 409.520325,295.533264 
z"/>
<path fill="#7C7371" opacity="1.000000" stroke="none" 
	d="
M378.996948,378.004944 
	C379.000336,378.002502 378.957520,377.887878 378.975891,377.944885 
	C378.994232,378.001862 378.993591,378.007355 378.996948,378.004944 
z"/>
<path fill="#E6D9D3" opacity="1.000000" stroke="none" 
	d="
M233.011566,378.016663 
	C232.925690,378.052551 232.825211,378.071411 232.843582,378.030640 
	C232.962433,377.971039 232.996979,377.999664 233.011566,378.016663 
z"/>
<path fill="#F1E3DD" opacity="1.000000" stroke="none" 
	d="
M363.533783,292.479614 
	C363.555023,292.519989 363.512543,292.439270 363.533783,292.479614 
z"/>
<path fill="#E6D9D3" opacity="1.000000" stroke="none" 
	d="
M312.991516,375.988281 
	C313.075409,375.953125 313.169128,375.930023 313.144318,375.963318 
	C313.025787,376.019714 313.001312,376.000305 312.991516,375.988281 
z"/>
<path fill="#E6D9D3" opacity="1.000000" stroke="none" 
	d="
M226.016846,372.025635 
	C225.926895,372.063080 225.812500,372.073608 225.817734,372.017670 
	C225.937378,371.951233 225.992401,371.998749 226.016846,372.025635 
z"/>
<path fill="#F1E3DD" opacity="1.000000" stroke="none" 
	d="
M419.616760,303.158203 
	C419.843018,303.378601 419.735138,303.635101 419.237488,303.860992 
	C419.114197,303.655792 419.259216,303.443756 419.616760,303.158203 
z"/>
<path fill="#F0E2DC" opacity="1.000000" stroke="none" 
	d="
M173.164017,314.034973 
	C173.377258,313.937714 173.526169,314.366089 173.559830,314.589966 
	C173.379242,314.586609 173.165009,314.359406 173.164017,314.034973 
z"/>
<path fill="#F1E3DD" opacity="1.000000" stroke="none" 
	d="
M362.479248,294.465668 
	C362.520142,294.444061 362.438354,294.487274 362.479248,294.465668 
z"/>
<path fill="#C58787" opacity="1.000000" stroke="none" 
	d="
M370.672913,268.611084 
	C370.548309,268.701843 370.460602,268.387634 370.460602,268.387634 
	C370.460602,268.387634 370.797485,268.520294 370.672913,268.611084 
z"/>
<path fill="#F1E3DD" opacity="1.000000" stroke="none" 
	d="
M246.778625,168.024658 
	C253.743713,176.883469 262.591522,176.651840 271.397705,173.162704 
	C277.181549,170.871078 282.533783,170.984177 288.869720,172.433777 
	C281.113495,181.349823 271.686157,185.690048 260.362885,185.824677 
	C259.051453,185.840256 257.718048,184.005661 256.319763,182.973419 
	C254.518997,184.570663 252.822800,187.202621 250.799973,187.483658 
	C249.388367,187.679779 247.529358,184.655701 245.560699,182.774246 
	C242.596176,188.003021 238.211334,186.150314 234.170456,184.590042 
	C228.013931,182.212860 224.012100,177.758194 222.993973,171.049011 
	C222.746826,169.420456 222.326019,167.435898 222.986664,166.116638 
	C226.245071,159.609985 224.219559,153.229538 223.025864,146.798950 
	C222.875458,145.988693 222.877350,145.040665 222.440720,144.412018 
	C220.564163,141.710175 218.788895,139.086273 221.739319,136.007843 
	C224.870850,132.740479 228.494186,130.515594 233.215088,131.232330 
	C238.968155,132.105774 242.475510,136.016998 243.897552,142.290512 
	C244.344299,144.261398 245.571136,146.055481 246.812149,148.730743 
	C243.297714,154.058548 242.515579,160.785233 246.778625,168.024658 
z"/>
<path fill="#F0E2DC" opacity="1.000000" stroke="none" 
	d="
M283.600769,153.502640 
	C286.584045,150.556564 286.014557,145.106522 291.276825,143.953156 
	C286.751068,162.069412 276.967407,169.803528 262.987427,171.711288 
	C255.888672,172.680023 249.011688,167.948059 247.970154,161.555222 
	C246.604034,153.170151 250.290878,146.722260 258.421356,145.827911 
	C266.569794,144.931595 274.893768,145.631012 283.108704,145.631012 
	C281.317139,152.740906 275.353210,157.987915 267.803497,158.977783 
	C267.310303,159.042450 266.729279,158.884186 266.324127,159.092361 
	C264.882996,159.832916 263.500305,160.687225 262.095490,161.498474 
	C263.674316,161.990860 265.530518,163.273636 266.782349,162.834305 
	C271.397034,161.214706 275.867126,159.138000 280.266357,156.978180 
	C281.524811,156.360336 282.360168,154.880783 283.600769,153.502640 
z"/>
<path fill="#F0E2DC" opacity="1.000000" stroke="none" 
	d="
M272.705688,228.899658 
	C264.388062,230.702972 263.203827,229.772705 263.163239,221.795975 
	C263.132385,215.738647 260.534729,213.027802 254.335876,213.682816 
	C255.520248,215.082962 256.176331,216.376770 257.229523,217.010300 
	C260.977936,219.265060 260.994080,223.288788 259.250366,225.638000 
	C257.604401,227.855423 253.698807,228.521225 250.661011,229.462265 
	C250.123444,229.628784 248.737152,227.923615 248.155746,226.857544 
	C247.453613,225.570084 247.208710,224.036896 246.736282,222.619949 
	C243.175781,211.940933 243.173508,211.941696 232.511536,210.533127 
	C233.287262,205.849777 237.607040,202.215958 242.893753,201.944427 
	C245.379593,201.816757 247.922745,202.220886 250.360138,201.854050 
	C255.615356,201.063110 259.066132,203.098053 261.929840,207.462509 
	C263.113220,209.266037 265.685364,210.905685 267.812988,211.182724 
	C271.914825,211.716812 273.909485,213.826035 275.151581,217.429230 
	C276.170776,220.385757 277.509033,223.232300 278.721069,226.164352 
	C276.642700,227.135422 274.860809,227.967957 272.705688,228.899658 
z"/>
<path fill="#F0E2DC" opacity="1.000000" stroke="none" 
	d="
M240.512390,227.399750 
	C236.384857,229.902512 232.511124,230.309311 228.282150,228.668259 
	C226.015610,227.788727 223.492615,227.570099 220.280029,226.880325 
	C219.551392,224.019501 219.566422,220.786087 224.160172,219.256454 
	C225.257324,218.891144 226.290710,218.320419 227.330124,217.797852 
	C238.568222,212.147827 241.387558,213.722076 243.867859,226.222961 
	C242.894104,226.538956 241.872833,226.870361 240.512390,227.399750 
z"/>
<path fill="#F0E2DC" opacity="1.000000" stroke="none" 
	d="
M212.618927,146.634247 
	C214.368454,145.658112 215.803604,144.865036 217.356430,144.006927 
	C220.197800,146.775101 220.567139,148.583237 216.602371,150.783401 
	C211.904526,153.390381 207.683655,156.856873 203.110062,160.052856 
	C200.962173,156.467346 201.059479,153.257309 205.449158,150.875092 
	C207.781448,149.609375 210.022385,148.175354 212.618927,146.634247 
z"/>
<path fill="#F0E2DC" opacity="1.000000" stroke="none" 
	d="
M292.918304,166.051453 
	C289.533203,167.087570 286.377594,167.802399 282.309204,168.723984 
	C285.784760,163.543671 288.418884,159.246597 291.488922,155.287552 
	C292.315613,154.221481 294.466766,154.182495 296.009979,153.672043 
	C296.363525,154.034485 296.717072,154.396927 297.070618,154.759354 
	C295.763000,158.416275 294.455414,162.073212 292.918304,166.051453 
z"/>
<path fill="#F1E3DD" opacity="1.000000" stroke="none" 
	d="
M331.286835,300.933594 
	C335.058563,307.405701 334.662018,314.125244 333.768433,320.722412 
	C333.234467,324.664734 330.862122,327.791321 326.551910,328.766724 
	C321.645844,329.876984 317.409241,328.324432 314.520447,324.517548 
	C308.927399,317.146973 307.473907,308.763031 310.651337,299.999054 
	C312.899292,293.798615 320.474640,291.814453 326.115295,295.743683 
	C327.990906,297.050232 329.434509,298.976990 331.286835,300.933594 
z"/>
</svg>